# xmcd
#
# Track frame offsets:
#	150
#	14365
#	28760
#	42305
#	54972
#	65672
#	79072
#	91792
#	104477
#	118487
#	131515
#	146080
#	157192
#	170510
#	189460
#	208005
#	226677
#	241105
#	257622
#	274245
#
# Disc length: 3903 seconds
#
# Revision: 2
# Processed by: cddbd v1.5.2PL0 Copyright (c) Steve Scherf et al.
# Submitted via: audiograbber 1.83.01
#
DISCID=1b0f3d14
DTITLE=Don Williams - 20 Greatest Hits
DYEAR=1987
DGENRE=Country
TTITLE0=Come Early Morning
TTITLE1=Amanda
TTITLE2=I Wouldn't Want To Live If You Didn't Love Me
TTITLE3=You're My Best Friend
TTITLE4=Love Me Tonight
TTITLE5=Say it Again
TTITLE6=She Never Knew Me
TTITLE7=Some Broken Hearts Never Mend
TTITLE8=I'm Just a Country Boy
TTITLE9=Rake and Ramblin Man
TTITLE10=Tulsa Time
TTITLE11=It Must be Love
TTITLE12=Love Me Over Again
TTITLE13=Good Ole Boys Like Me
TTITLE14=I Believe in You
TTITLE15=Lord I Hope This Day is Good
TTITLE16=If Hollywood Doesn't Need You
TTITLE17=Love Is On a Roll
TTITLE18=That's The Thing About Love
TTITLE19=Maggie's Dream
EXTD=
EXTT0=
EXTT1=
EXTT2=
EXTT3=
EXTT4=
EXTT5=
EXTT6=
EXTT7=
EXTT8=
EXTT9=
EXTT10=
EXTT11=
EXTT12=
EXTT13=
EXTT14=
EXTT15=
EXTT16=
EXTT17=
EXTT18=
EXTT19=
PLAYORDER=
